<svg width="21" height="23" viewBox="0 0 21 23" fill="none" xmlns="http://www.w3.org/2000/svg">
<path d="M8.45234 19.7528C9.02248 19.6252 12.5059 19.5812 13.0792 19.6943C13.5693 19.8004 14.1011 20.0561 14.1085 20.629C14.087 21.1748 13.7715 21.6624 13.3311 21.9752C12.7606 22.4293 12.088 22.7209 11.3823 22.8318C10.992 22.8872 10.6079 22.8932 10.2299 22.8464C9.52053 22.7534 8.84068 22.4789 8.25987 22.0381C7.81044 21.7378 7.48263 21.2583 7.44725 20.7132C7.43993 20.1403 7.96507 19.8712 8.45234 19.7528ZM10.5829 0.122257C12.9617 0.0921861 15.4059 1.18441 16.8731 3.02933C17.825 4.21721 18.2699 5.41035 18.2937 7.27352L18.2999 7.75822C18.3181 9.18711 18.7085 10.0245 19.5562 10.9845C20.1984 11.6915 20.4124 12.6068 20.4251 13.6025C20.4378 14.5972 20.1214 15.5455 19.4732 16.3204C18.6234 17.2503 17.416 17.8523 16.1773 17.97C14.3824 18.1451 12.586 18.2961 10.7642 18.3192C8.94119 18.3422 7.14335 18.2882 5.34389 18.1069C4.10149 18.0206 2.87905 17.4493 2.00696 16.5412C1.33912 15.7829 0.997464 14.8429 0.984761 13.8483C0.972044 12.8525 1.16376 11.9321 1.78654 11.2091C2.63564 10.2277 2.97948 9.38101 2.96123 7.95212L2.95504 7.46742C2.9306 5.55384 3.39423 4.29649 4.36624 3.05908C5.81182 1.25412 8.15189 0.152989 10.4806 0.12355L10.5829 0.122257Z" fill="#4635E2"/>
</svg>
