<svg width="16" height="16" viewBox="0 0 16 16" fill="none" xmlns="http://www.w3.org/2000/svg">
<path d="M3.55556 3.6V0.899999C3.55556 0.661305 3.64921 0.432386 3.81591 0.263604C3.9826 0.094821 4.2087 0 4.44444 0H15.1111C15.3469 0 15.573 0.094821 15.7397 0.263604C15.9064 0.432386 16 0.661305 16 0.899999V11.5C16 11.7387 15.9064 11.9676 15.7397 12.1364C15.573 12.3052 15.3469 12.4 15.1111 12.4H12.4444V15.1C12.4444 15.5968 12.0444 16 11.5493 16H0.895111C0.777891 16.0007 0.661686 15.9779 0.553175 15.933C0.444664 15.8881 0.345985 15.822 0.262808 15.7384C0.17963 15.6547 0.113594 15.5553 0.0684927 15.4457C0.0233916 15.3362 0.000114999 15.2187 0 15.1L0.00266669 4.5C0.00266669 4.0032 0.402667 3.6 0.897778 3.6H3.55556ZM5.33333 3.6H12.4444V10.6H14.2222V1.8H5.33333V3.6Z" fill="white"/>
</svg>
