<svg width="22" height="23" viewBox="0 0 22 23" fill="none" xmlns="http://www.w3.org/2000/svg">
<path d="M17.3615 15.9482L22 20.5856L20.4676 22.118L15.8302 17.4796C14.1047 18.8628 11.9585 19.6151 9.74697 19.612C4.36664 19.612 0 15.2453 0 9.86502C0 4.48469 4.36664 0.118042 9.74697 0.118042C15.1273 0.118042 19.4939 4.48469 19.4939 9.86502C19.4971 12.0765 18.7448 14.2227 17.3615 15.9482ZM15.189 15.1446C16.5635 13.7312 17.3311 11.8365 17.328 9.86502C17.328 5.67598 13.9349 2.28404 9.74697 2.28404C5.55794 2.28404 2.16599 5.67598 2.16599 9.86502C2.16599 14.053 5.55794 17.446 9.74697 17.446C11.7185 17.4491 13.6131 16.6815 15.0266 15.3071L15.189 15.1446Z" fill="#4635E2"/>
</svg>
