<svg width="18" height="21" viewBox="0 0 18 21" fill="none" xmlns="http://www.w3.org/2000/svg">
<path d="M11.0196 16.6792C11.0196 18.5792 12.5326 20.118 14.3992 20.118C16.2648 20.118 17.7778 18.5792 17.7778 16.6792C17.7778 14.7803 16.2648 13.2403 14.3992 13.2403C12.5325 13.2403 11.0196 14.7803 11.0196 16.6792ZM12.958 8.20133C12.958 9.03355 13.6217 9.7091 14.4393 9.7091C15.2558 9.7091 15.9206 9.03355 15.9206 8.20133L15.9206 1.62581C15.9206 0.793593 15.2558 0.118041 14.4393 0.118041C13.6217 0.118041 12.958 0.793593 12.958 1.62581L12.958 8.20133ZM1.50318e-07 3.55691C2.33369e-07 5.4569 1.51298 6.99578 3.37856 6.99578C5.24523 6.99578 6.75821 5.4569 6.75821 3.55691C6.75821 1.65803 5.24523 0.118042 3.37856 0.118042C1.51298 0.118042 6.73152e-08 1.65803 1.50318e-07 3.55691ZM1.89833 18.6114C1.89833 19.4425 2.56203 20.118 3.37856 20.118C4.19618 20.118 4.85989 19.4425 4.85989 18.6114L4.85989 12.0359C4.85989 11.2036 4.19618 10.5281 3.37856 10.5281C2.56203 10.5281 1.89833 11.2036 1.89833 12.0359L1.89833 18.6114Z" fill="#4635E2"/>
</svg>
